<mxfile host="app.diagrams.net" agent="Mozilla/5.0 (Windows NT 10.0; Win64; x64) AppleWebKit/537.36 (KHTML, like Gecko) Chrome/133.0.0.0 Safari/537.36" version="26.1.0">
  <diagram name="Page-1" id="N7ihyNQauSOS1U6XEbfd">
    <mxGraphModel grid="1" page="1" gridSize="10" guides="1" tooltips="1" connect="1" arrows="1" fold="1" pageScale="1" pageWidth="850" pageHeight="1100" math="0" shadow="0">
      <root>
        <mxCell id="0" />
        <mxCell id="1" parent="0" />
        <mxCell id="QoZe6DG2z-Dy7hGhGaiL-14" value="gold.dim_customers" style="shape=table;startSize=30;container=1;collapsible=1;childLayout=tableLayout;fixedRows=1;rowLines=0;fontStyle=1;align=center;resizeLast=1;html=1;rounded=1;fillColor=#fff2cc;strokeColor=#d6b656;fontSize=16;" vertex="1" parent="1">
          <mxGeometry x="10" y="110" width="180" height="384" as="geometry" />
        </mxCell>
        <mxCell id="QoZe6DG2z-Dy7hGhGaiL-15" value="" style="shape=tableRow;horizontal=0;startSize=0;swimlaneHead=0;swimlaneBody=0;fillColor=none;collapsible=0;dropTarget=0;points=[[0,0.5],[1,0.5]];portConstraint=eastwest;top=0;left=0;right=0;bottom=1;fontSize=16;" vertex="1" parent="QoZe6DG2z-Dy7hGhGaiL-14">
          <mxGeometry y="30" width="180" height="30" as="geometry" />
        </mxCell>
        <mxCell id="QoZe6DG2z-Dy7hGhGaiL-16" value="PK" style="shape=partialRectangle;connectable=0;fillColor=none;top=0;left=0;bottom=0;right=0;fontStyle=1;overflow=hidden;whiteSpace=wrap;html=1;fontSize=16;" vertex="1" parent="QoZe6DG2z-Dy7hGhGaiL-15">
          <mxGeometry width="30" height="30" as="geometry">
            <mxRectangle width="30" height="30" as="alternateBounds" />
          </mxGeometry>
        </mxCell>
        <mxCell id="QoZe6DG2z-Dy7hGhGaiL-17" value="customer_key" style="shape=partialRectangle;connectable=0;fillColor=none;top=0;left=0;bottom=0;right=0;align=left;spacingLeft=6;fontStyle=5;overflow=hidden;whiteSpace=wrap;html=1;fontSize=16;" vertex="1" parent="QoZe6DG2z-Dy7hGhGaiL-15">
          <mxGeometry x="30" width="150" height="30" as="geometry">
            <mxRectangle width="150" height="30" as="alternateBounds" />
          </mxGeometry>
        </mxCell>
        <mxCell id="QoZe6DG2z-Dy7hGhGaiL-18" value="" style="shape=tableRow;horizontal=0;startSize=0;swimlaneHead=0;swimlaneBody=0;fillColor=none;collapsible=0;dropTarget=0;points=[[0,0.5],[1,0.5]];portConstraint=eastwest;top=0;left=0;right=0;bottom=0;fontSize=16;" vertex="1" parent="QoZe6DG2z-Dy7hGhGaiL-14">
          <mxGeometry y="60" width="180" height="30" as="geometry" />
        </mxCell>
        <mxCell id="QoZe6DG2z-Dy7hGhGaiL-19" value="" style="shape=partialRectangle;connectable=0;fillColor=none;top=0;left=0;bottom=0;right=0;editable=1;overflow=hidden;whiteSpace=wrap;html=1;fontSize=16;" vertex="1" parent="QoZe6DG2z-Dy7hGhGaiL-18">
          <mxGeometry width="30" height="30" as="geometry">
            <mxRectangle width="30" height="30" as="alternateBounds" />
          </mxGeometry>
        </mxCell>
        <mxCell id="QoZe6DG2z-Dy7hGhGaiL-20" value="customer_id" style="shape=partialRectangle;connectable=0;fillColor=none;top=0;left=0;bottom=0;right=0;align=left;spacingLeft=6;overflow=hidden;whiteSpace=wrap;html=1;fontSize=16;" vertex="1" parent="QoZe6DG2z-Dy7hGhGaiL-18">
          <mxGeometry x="30" width="150" height="30" as="geometry">
            <mxRectangle width="150" height="30" as="alternateBounds" />
          </mxGeometry>
        </mxCell>
        <mxCell id="QoZe6DG2z-Dy7hGhGaiL-27" value="" style="shape=tableRow;horizontal=0;startSize=0;swimlaneHead=0;swimlaneBody=0;fillColor=none;collapsible=0;dropTarget=0;points=[[0,0.5],[1,0.5]];portConstraint=eastwest;top=0;left=0;right=0;bottom=0;fontSize=16;" vertex="1" parent="QoZe6DG2z-Dy7hGhGaiL-14">
          <mxGeometry y="90" width="180" height="30" as="geometry" />
        </mxCell>
        <mxCell id="QoZe6DG2z-Dy7hGhGaiL-28" value="" style="shape=partialRectangle;connectable=0;fillColor=none;top=0;left=0;bottom=0;right=0;editable=1;overflow=hidden;whiteSpace=wrap;html=1;fontSize=16;" vertex="1" parent="QoZe6DG2z-Dy7hGhGaiL-27">
          <mxGeometry width="30" height="30" as="geometry">
            <mxRectangle width="30" height="30" as="alternateBounds" />
          </mxGeometry>
        </mxCell>
        <mxCell id="QoZe6DG2z-Dy7hGhGaiL-29" value="customer_number" style="shape=partialRectangle;connectable=0;fillColor=none;top=0;left=0;bottom=0;right=0;align=left;spacingLeft=6;overflow=hidden;whiteSpace=wrap;html=1;fontSize=16;" vertex="1" parent="QoZe6DG2z-Dy7hGhGaiL-27">
          <mxGeometry x="30" width="150" height="30" as="geometry">
            <mxRectangle width="150" height="30" as="alternateBounds" />
          </mxGeometry>
        </mxCell>
        <mxCell id="QoZe6DG2z-Dy7hGhGaiL-21" value="" style="shape=tableRow;horizontal=0;startSize=0;swimlaneHead=0;swimlaneBody=0;fillColor=none;collapsible=0;dropTarget=0;points=[[0,0.5],[1,0.5]];portConstraint=eastwest;top=0;left=0;right=0;bottom=0;fontSize=16;" vertex="1" parent="QoZe6DG2z-Dy7hGhGaiL-14">
          <mxGeometry y="120" width="180" height="30" as="geometry" />
        </mxCell>
        <mxCell id="QoZe6DG2z-Dy7hGhGaiL-22" value="" style="shape=partialRectangle;connectable=0;fillColor=none;top=0;left=0;bottom=0;right=0;editable=1;overflow=hidden;whiteSpace=wrap;html=1;fontSize=16;" vertex="1" parent="QoZe6DG2z-Dy7hGhGaiL-21">
          <mxGeometry width="30" height="30" as="geometry">
            <mxRectangle width="30" height="30" as="alternateBounds" />
          </mxGeometry>
        </mxCell>
        <mxCell id="QoZe6DG2z-Dy7hGhGaiL-23" value="first_name" style="shape=partialRectangle;connectable=0;fillColor=none;top=0;left=0;bottom=0;right=0;align=left;spacingLeft=6;overflow=hidden;whiteSpace=wrap;html=1;fontSize=16;" vertex="1" parent="QoZe6DG2z-Dy7hGhGaiL-21">
          <mxGeometry x="30" width="150" height="30" as="geometry">
            <mxRectangle width="150" height="30" as="alternateBounds" />
          </mxGeometry>
        </mxCell>
        <mxCell id="QoZe6DG2z-Dy7hGhGaiL-24" value="" style="shape=tableRow;horizontal=0;startSize=0;swimlaneHead=0;swimlaneBody=0;fillColor=none;collapsible=0;dropTarget=0;points=[[0,0.5],[1,0.5]];portConstraint=eastwest;top=0;left=0;right=0;bottom=0;fontSize=16;" vertex="1" parent="QoZe6DG2z-Dy7hGhGaiL-14">
          <mxGeometry y="150" width="180" height="39" as="geometry" />
        </mxCell>
        <mxCell id="QoZe6DG2z-Dy7hGhGaiL-25" value="" style="shape=partialRectangle;connectable=0;fillColor=none;top=0;left=0;bottom=0;right=0;editable=1;overflow=hidden;whiteSpace=wrap;html=1;fontSize=16;" vertex="1" parent="QoZe6DG2z-Dy7hGhGaiL-24">
          <mxGeometry width="30" height="39" as="geometry">
            <mxRectangle width="30" height="39" as="alternateBounds" />
          </mxGeometry>
        </mxCell>
        <mxCell id="QoZe6DG2z-Dy7hGhGaiL-26" value="last_name" style="shape=partialRectangle;connectable=0;fillColor=none;top=0;left=0;bottom=0;right=0;align=left;spacingLeft=6;overflow=hidden;whiteSpace=wrap;html=1;fontSize=16;" vertex="1" parent="QoZe6DG2z-Dy7hGhGaiL-24">
          <mxGeometry x="30" width="150" height="39" as="geometry">
            <mxRectangle width="150" height="39" as="alternateBounds" />
          </mxGeometry>
        </mxCell>
        <mxCell id="QoZe6DG2z-Dy7hGhGaiL-30" value="" style="shape=tableRow;horizontal=0;startSize=0;swimlaneHead=0;swimlaneBody=0;fillColor=none;collapsible=0;dropTarget=0;points=[[0,0.5],[1,0.5]];portConstraint=eastwest;top=0;left=0;right=0;bottom=0;fontSize=16;" vertex="1" parent="QoZe6DG2z-Dy7hGhGaiL-14">
          <mxGeometry y="189" width="180" height="39" as="geometry" />
        </mxCell>
        <mxCell id="QoZe6DG2z-Dy7hGhGaiL-31" value="" style="shape=partialRectangle;connectable=0;fillColor=none;top=0;left=0;bottom=0;right=0;editable=1;overflow=hidden;whiteSpace=wrap;html=1;fontSize=16;" vertex="1" parent="QoZe6DG2z-Dy7hGhGaiL-30">
          <mxGeometry width="30" height="39" as="geometry">
            <mxRectangle width="30" height="39" as="alternateBounds" />
          </mxGeometry>
        </mxCell>
        <mxCell id="QoZe6DG2z-Dy7hGhGaiL-32" value="country" style="shape=partialRectangle;connectable=0;fillColor=none;top=0;left=0;bottom=0;right=0;align=left;spacingLeft=6;overflow=hidden;whiteSpace=wrap;html=1;fontSize=16;" vertex="1" parent="QoZe6DG2z-Dy7hGhGaiL-30">
          <mxGeometry x="30" width="150" height="39" as="geometry">
            <mxRectangle width="150" height="39" as="alternateBounds" />
          </mxGeometry>
        </mxCell>
        <mxCell id="QoZe6DG2z-Dy7hGhGaiL-33" value="" style="shape=tableRow;horizontal=0;startSize=0;swimlaneHead=0;swimlaneBody=0;fillColor=none;collapsible=0;dropTarget=0;points=[[0,0.5],[1,0.5]];portConstraint=eastwest;top=0;left=0;right=0;bottom=0;fontSize=16;" vertex="1" parent="QoZe6DG2z-Dy7hGhGaiL-14">
          <mxGeometry y="228" width="180" height="39" as="geometry" />
        </mxCell>
        <mxCell id="QoZe6DG2z-Dy7hGhGaiL-34" value="" style="shape=partialRectangle;connectable=0;fillColor=none;top=0;left=0;bottom=0;right=0;editable=1;overflow=hidden;whiteSpace=wrap;html=1;fontSize=16;" vertex="1" parent="QoZe6DG2z-Dy7hGhGaiL-33">
          <mxGeometry width="30" height="39" as="geometry">
            <mxRectangle width="30" height="39" as="alternateBounds" />
          </mxGeometry>
        </mxCell>
        <mxCell id="QoZe6DG2z-Dy7hGhGaiL-35" value="marital_status&amp;nbsp;" style="shape=partialRectangle;connectable=0;fillColor=none;top=0;left=0;bottom=0;right=0;align=left;spacingLeft=6;overflow=hidden;whiteSpace=wrap;html=1;fontSize=16;" vertex="1" parent="QoZe6DG2z-Dy7hGhGaiL-33">
          <mxGeometry x="30" width="150" height="39" as="geometry">
            <mxRectangle width="150" height="39" as="alternateBounds" />
          </mxGeometry>
        </mxCell>
        <mxCell id="QoZe6DG2z-Dy7hGhGaiL-36" value="" style="shape=tableRow;horizontal=0;startSize=0;swimlaneHead=0;swimlaneBody=0;fillColor=none;collapsible=0;dropTarget=0;points=[[0,0.5],[1,0.5]];portConstraint=eastwest;top=0;left=0;right=0;bottom=0;fontSize=16;" vertex="1" parent="QoZe6DG2z-Dy7hGhGaiL-14">
          <mxGeometry y="267" width="180" height="39" as="geometry" />
        </mxCell>
        <mxCell id="QoZe6DG2z-Dy7hGhGaiL-37" value="" style="shape=partialRectangle;connectable=0;fillColor=none;top=0;left=0;bottom=0;right=0;editable=1;overflow=hidden;whiteSpace=wrap;html=1;fontSize=16;" vertex="1" parent="QoZe6DG2z-Dy7hGhGaiL-36">
          <mxGeometry width="30" height="39" as="geometry">
            <mxRectangle width="30" height="39" as="alternateBounds" />
          </mxGeometry>
        </mxCell>
        <mxCell id="QoZe6DG2z-Dy7hGhGaiL-38" value="gender" style="shape=partialRectangle;connectable=0;fillColor=none;top=0;left=0;bottom=0;right=0;align=left;spacingLeft=6;overflow=hidden;whiteSpace=wrap;html=1;fontSize=16;" vertex="1" parent="QoZe6DG2z-Dy7hGhGaiL-36">
          <mxGeometry x="30" width="150" height="39" as="geometry">
            <mxRectangle width="150" height="39" as="alternateBounds" />
          </mxGeometry>
        </mxCell>
        <mxCell id="QoZe6DG2z-Dy7hGhGaiL-39" value="" style="shape=tableRow;horizontal=0;startSize=0;swimlaneHead=0;swimlaneBody=0;fillColor=none;collapsible=0;dropTarget=0;points=[[0,0.5],[1,0.5]];portConstraint=eastwest;top=0;left=0;right=0;bottom=0;fontSize=16;" vertex="1" parent="QoZe6DG2z-Dy7hGhGaiL-14">
          <mxGeometry y="306" width="180" height="39" as="geometry" />
        </mxCell>
        <mxCell id="QoZe6DG2z-Dy7hGhGaiL-40" value="" style="shape=partialRectangle;connectable=0;fillColor=none;top=0;left=0;bottom=0;right=0;editable=1;overflow=hidden;whiteSpace=wrap;html=1;fontSize=16;" vertex="1" parent="QoZe6DG2z-Dy7hGhGaiL-39">
          <mxGeometry width="30" height="39" as="geometry">
            <mxRectangle width="30" height="39" as="alternateBounds" />
          </mxGeometry>
        </mxCell>
        <mxCell id="QoZe6DG2z-Dy7hGhGaiL-41" value="birthdate&amp;nbsp;" style="shape=partialRectangle;connectable=0;fillColor=none;top=0;left=0;bottom=0;right=0;align=left;spacingLeft=6;overflow=hidden;whiteSpace=wrap;html=1;fontSize=16;" vertex="1" parent="QoZe6DG2z-Dy7hGhGaiL-39">
          <mxGeometry x="30" width="150" height="39" as="geometry">
            <mxRectangle width="150" height="39" as="alternateBounds" />
          </mxGeometry>
        </mxCell>
        <mxCell id="QoZe6DG2z-Dy7hGhGaiL-42" value="" style="shape=tableRow;horizontal=0;startSize=0;swimlaneHead=0;swimlaneBody=0;fillColor=none;collapsible=0;dropTarget=0;points=[[0,0.5],[1,0.5]];portConstraint=eastwest;top=0;left=0;right=0;bottom=0;fontSize=16;" vertex="1" parent="QoZe6DG2z-Dy7hGhGaiL-14">
          <mxGeometry y="345" width="180" height="39" as="geometry" />
        </mxCell>
        <mxCell id="QoZe6DG2z-Dy7hGhGaiL-43" value="" style="shape=partialRectangle;connectable=0;fillColor=none;top=0;left=0;bottom=0;right=0;editable=1;overflow=hidden;whiteSpace=wrap;html=1;fontSize=16;" vertex="1" parent="QoZe6DG2z-Dy7hGhGaiL-42">
          <mxGeometry width="30" height="39" as="geometry">
            <mxRectangle width="30" height="39" as="alternateBounds" />
          </mxGeometry>
        </mxCell>
        <mxCell id="QoZe6DG2z-Dy7hGhGaiL-44" value="country&amp;nbsp;" style="shape=partialRectangle;connectable=0;fillColor=none;top=0;left=0;bottom=0;right=0;align=left;spacingLeft=6;overflow=hidden;whiteSpace=wrap;html=1;fontSize=16;" vertex="1" parent="QoZe6DG2z-Dy7hGhGaiL-42">
          <mxGeometry x="30" width="150" height="39" as="geometry">
            <mxRectangle width="150" height="39" as="alternateBounds" />
          </mxGeometry>
        </mxCell>
        <mxCell id="QoZe6DG2z-Dy7hGhGaiL-45" value="gold.dim_products&amp;nbsp;" style="shape=table;startSize=30;container=1;collapsible=1;childLayout=tableLayout;fixedRows=1;rowLines=0;fontStyle=1;align=center;resizeLast=1;html=1;rounded=1;fillColor=#fff2cc;strokeColor=#d6b656;fontSize=16;" vertex="1" parent="1">
          <mxGeometry x="630" y="120" width="180" height="423" as="geometry" />
        </mxCell>
        <mxCell id="QoZe6DG2z-Dy7hGhGaiL-46" value="" style="shape=tableRow;horizontal=0;startSize=0;swimlaneHead=0;swimlaneBody=0;fillColor=none;collapsible=0;dropTarget=0;points=[[0,0.5],[1,0.5]];portConstraint=eastwest;top=0;left=0;right=0;bottom=1;fontSize=16;" vertex="1" parent="QoZe6DG2z-Dy7hGhGaiL-45">
          <mxGeometry y="30" width="180" height="30" as="geometry" />
        </mxCell>
        <mxCell id="QoZe6DG2z-Dy7hGhGaiL-47" value="PK" style="shape=partialRectangle;connectable=0;fillColor=none;top=0;left=0;bottom=0;right=0;fontStyle=1;overflow=hidden;whiteSpace=wrap;html=1;fontSize=16;" vertex="1" parent="QoZe6DG2z-Dy7hGhGaiL-46">
          <mxGeometry width="30" height="30" as="geometry">
            <mxRectangle width="30" height="30" as="alternateBounds" />
          </mxGeometry>
        </mxCell>
        <mxCell id="QoZe6DG2z-Dy7hGhGaiL-48" value="product_key" style="shape=partialRectangle;connectable=0;fillColor=none;top=0;left=0;bottom=0;right=0;align=left;spacingLeft=6;fontStyle=5;overflow=hidden;whiteSpace=wrap;html=1;fontSize=16;" vertex="1" parent="QoZe6DG2z-Dy7hGhGaiL-46">
          <mxGeometry x="30" width="150" height="30" as="geometry">
            <mxRectangle width="150" height="30" as="alternateBounds" />
          </mxGeometry>
        </mxCell>
        <mxCell id="QoZe6DG2z-Dy7hGhGaiL-49" value="" style="shape=tableRow;horizontal=0;startSize=0;swimlaneHead=0;swimlaneBody=0;fillColor=none;collapsible=0;dropTarget=0;points=[[0,0.5],[1,0.5]];portConstraint=eastwest;top=0;left=0;right=0;bottom=0;fontSize=16;" vertex="1" parent="QoZe6DG2z-Dy7hGhGaiL-45">
          <mxGeometry y="60" width="180" height="30" as="geometry" />
        </mxCell>
        <mxCell id="QoZe6DG2z-Dy7hGhGaiL-50" value="" style="shape=partialRectangle;connectable=0;fillColor=none;top=0;left=0;bottom=0;right=0;editable=1;overflow=hidden;whiteSpace=wrap;html=1;fontSize=16;" vertex="1" parent="QoZe6DG2z-Dy7hGhGaiL-49">
          <mxGeometry width="30" height="30" as="geometry">
            <mxRectangle width="30" height="30" as="alternateBounds" />
          </mxGeometry>
        </mxCell>
        <mxCell id="QoZe6DG2z-Dy7hGhGaiL-51" value="product_id" style="shape=partialRectangle;connectable=0;fillColor=none;top=0;left=0;bottom=0;right=0;align=left;spacingLeft=6;overflow=hidden;whiteSpace=wrap;html=1;fontSize=16;" vertex="1" parent="QoZe6DG2z-Dy7hGhGaiL-49">
          <mxGeometry x="30" width="150" height="30" as="geometry">
            <mxRectangle width="150" height="30" as="alternateBounds" />
          </mxGeometry>
        </mxCell>
        <mxCell id="QoZe6DG2z-Dy7hGhGaiL-52" value="" style="shape=tableRow;horizontal=0;startSize=0;swimlaneHead=0;swimlaneBody=0;fillColor=none;collapsible=0;dropTarget=0;points=[[0,0.5],[1,0.5]];portConstraint=eastwest;top=0;left=0;right=0;bottom=0;fontSize=16;" vertex="1" parent="QoZe6DG2z-Dy7hGhGaiL-45">
          <mxGeometry y="90" width="180" height="30" as="geometry" />
        </mxCell>
        <mxCell id="QoZe6DG2z-Dy7hGhGaiL-53" value="" style="shape=partialRectangle;connectable=0;fillColor=none;top=0;left=0;bottom=0;right=0;editable=1;overflow=hidden;whiteSpace=wrap;html=1;fontSize=16;" vertex="1" parent="QoZe6DG2z-Dy7hGhGaiL-52">
          <mxGeometry width="30" height="30" as="geometry">
            <mxRectangle width="30" height="30" as="alternateBounds" />
          </mxGeometry>
        </mxCell>
        <mxCell id="QoZe6DG2z-Dy7hGhGaiL-54" value="product_number" style="shape=partialRectangle;connectable=0;fillColor=none;top=0;left=0;bottom=0;right=0;align=left;spacingLeft=6;overflow=hidden;whiteSpace=wrap;html=1;fontSize=16;" vertex="1" parent="QoZe6DG2z-Dy7hGhGaiL-52">
          <mxGeometry x="30" width="150" height="30" as="geometry">
            <mxRectangle width="150" height="30" as="alternateBounds" />
          </mxGeometry>
        </mxCell>
        <mxCell id="QoZe6DG2z-Dy7hGhGaiL-55" value="" style="shape=tableRow;horizontal=0;startSize=0;swimlaneHead=0;swimlaneBody=0;fillColor=none;collapsible=0;dropTarget=0;points=[[0,0.5],[1,0.5]];portConstraint=eastwest;top=0;left=0;right=0;bottom=0;fontSize=16;" vertex="1" parent="QoZe6DG2z-Dy7hGhGaiL-45">
          <mxGeometry y="120" width="180" height="30" as="geometry" />
        </mxCell>
        <mxCell id="QoZe6DG2z-Dy7hGhGaiL-56" value="" style="shape=partialRectangle;connectable=0;fillColor=none;top=0;left=0;bottom=0;right=0;editable=1;overflow=hidden;whiteSpace=wrap;html=1;fontSize=16;" vertex="1" parent="QoZe6DG2z-Dy7hGhGaiL-55">
          <mxGeometry width="30" height="30" as="geometry">
            <mxRectangle width="30" height="30" as="alternateBounds" />
          </mxGeometry>
        </mxCell>
        <mxCell id="QoZe6DG2z-Dy7hGhGaiL-57" value="product_name&amp;nbsp;" style="shape=partialRectangle;connectable=0;fillColor=none;top=0;left=0;bottom=0;right=0;align=left;spacingLeft=6;overflow=hidden;whiteSpace=wrap;html=1;fontSize=16;" vertex="1" parent="QoZe6DG2z-Dy7hGhGaiL-55">
          <mxGeometry x="30" width="150" height="30" as="geometry">
            <mxRectangle width="150" height="30" as="alternateBounds" />
          </mxGeometry>
        </mxCell>
        <mxCell id="QoZe6DG2z-Dy7hGhGaiL-58" value="" style="shape=tableRow;horizontal=0;startSize=0;swimlaneHead=0;swimlaneBody=0;fillColor=none;collapsible=0;dropTarget=0;points=[[0,0.5],[1,0.5]];portConstraint=eastwest;top=0;left=0;right=0;bottom=0;fontSize=16;" vertex="1" parent="QoZe6DG2z-Dy7hGhGaiL-45">
          <mxGeometry y="150" width="180" height="39" as="geometry" />
        </mxCell>
        <mxCell id="QoZe6DG2z-Dy7hGhGaiL-59" value="" style="shape=partialRectangle;connectable=0;fillColor=none;top=0;left=0;bottom=0;right=0;editable=1;overflow=hidden;whiteSpace=wrap;html=1;fontSize=16;" vertex="1" parent="QoZe6DG2z-Dy7hGhGaiL-58">
          <mxGeometry width="30" height="39" as="geometry">
            <mxRectangle width="30" height="39" as="alternateBounds" />
          </mxGeometry>
        </mxCell>
        <mxCell id="QoZe6DG2z-Dy7hGhGaiL-60" value="category_id" style="shape=partialRectangle;connectable=0;fillColor=none;top=0;left=0;bottom=0;right=0;align=left;spacingLeft=6;overflow=hidden;whiteSpace=wrap;html=1;fontSize=16;" vertex="1" parent="QoZe6DG2z-Dy7hGhGaiL-58">
          <mxGeometry x="30" width="150" height="39" as="geometry">
            <mxRectangle width="150" height="39" as="alternateBounds" />
          </mxGeometry>
        </mxCell>
        <mxCell id="QoZe6DG2z-Dy7hGhGaiL-61" value="" style="shape=tableRow;horizontal=0;startSize=0;swimlaneHead=0;swimlaneBody=0;fillColor=none;collapsible=0;dropTarget=0;points=[[0,0.5],[1,0.5]];portConstraint=eastwest;top=0;left=0;right=0;bottom=0;fontSize=16;" vertex="1" parent="QoZe6DG2z-Dy7hGhGaiL-45">
          <mxGeometry y="189" width="180" height="39" as="geometry" />
        </mxCell>
        <mxCell id="QoZe6DG2z-Dy7hGhGaiL-62" value="" style="shape=partialRectangle;connectable=0;fillColor=none;top=0;left=0;bottom=0;right=0;editable=1;overflow=hidden;whiteSpace=wrap;html=1;fontSize=16;" vertex="1" parent="QoZe6DG2z-Dy7hGhGaiL-61">
          <mxGeometry width="30" height="39" as="geometry">
            <mxRectangle width="30" height="39" as="alternateBounds" />
          </mxGeometry>
        </mxCell>
        <mxCell id="QoZe6DG2z-Dy7hGhGaiL-63" value="category&amp;nbsp;" style="shape=partialRectangle;connectable=0;fillColor=none;top=0;left=0;bottom=0;right=0;align=left;spacingLeft=6;overflow=hidden;whiteSpace=wrap;html=1;fontSize=16;" vertex="1" parent="QoZe6DG2z-Dy7hGhGaiL-61">
          <mxGeometry x="30" width="150" height="39" as="geometry">
            <mxRectangle width="150" height="39" as="alternateBounds" />
          </mxGeometry>
        </mxCell>
        <mxCell id="QoZe6DG2z-Dy7hGhGaiL-64" value="" style="shape=tableRow;horizontal=0;startSize=0;swimlaneHead=0;swimlaneBody=0;fillColor=none;collapsible=0;dropTarget=0;points=[[0,0.5],[1,0.5]];portConstraint=eastwest;top=0;left=0;right=0;bottom=0;fontSize=16;" vertex="1" parent="QoZe6DG2z-Dy7hGhGaiL-45">
          <mxGeometry y="228" width="180" height="39" as="geometry" />
        </mxCell>
        <mxCell id="QoZe6DG2z-Dy7hGhGaiL-65" value="" style="shape=partialRectangle;connectable=0;fillColor=none;top=0;left=0;bottom=0;right=0;editable=1;overflow=hidden;whiteSpace=wrap;html=1;fontSize=16;" vertex="1" parent="QoZe6DG2z-Dy7hGhGaiL-64">
          <mxGeometry width="30" height="39" as="geometry">
            <mxRectangle width="30" height="39" as="alternateBounds" />
          </mxGeometry>
        </mxCell>
        <mxCell id="QoZe6DG2z-Dy7hGhGaiL-66" value="sub_category" style="shape=partialRectangle;connectable=0;fillColor=none;top=0;left=0;bottom=0;right=0;align=left;spacingLeft=6;overflow=hidden;whiteSpace=wrap;html=1;fontSize=16;" vertex="1" parent="QoZe6DG2z-Dy7hGhGaiL-64">
          <mxGeometry x="30" width="150" height="39" as="geometry">
            <mxRectangle width="150" height="39" as="alternateBounds" />
          </mxGeometry>
        </mxCell>
        <mxCell id="QoZe6DG2z-Dy7hGhGaiL-67" value="" style="shape=tableRow;horizontal=0;startSize=0;swimlaneHead=0;swimlaneBody=0;fillColor=none;collapsible=0;dropTarget=0;points=[[0,0.5],[1,0.5]];portConstraint=eastwest;top=0;left=0;right=0;bottom=0;fontSize=16;" vertex="1" parent="QoZe6DG2z-Dy7hGhGaiL-45">
          <mxGeometry y="267" width="180" height="39" as="geometry" />
        </mxCell>
        <mxCell id="QoZe6DG2z-Dy7hGhGaiL-68" value="" style="shape=partialRectangle;connectable=0;fillColor=none;top=0;left=0;bottom=0;right=0;editable=1;overflow=hidden;whiteSpace=wrap;html=1;fontSize=16;" vertex="1" parent="QoZe6DG2z-Dy7hGhGaiL-67">
          <mxGeometry width="30" height="39" as="geometry">
            <mxRectangle width="30" height="39" as="alternateBounds" />
          </mxGeometry>
        </mxCell>
        <mxCell id="QoZe6DG2z-Dy7hGhGaiL-69" value="maintenance" style="shape=partialRectangle;connectable=0;fillColor=none;top=0;left=0;bottom=0;right=0;align=left;spacingLeft=6;overflow=hidden;whiteSpace=wrap;html=1;fontSize=16;" vertex="1" parent="QoZe6DG2z-Dy7hGhGaiL-67">
          <mxGeometry x="30" width="150" height="39" as="geometry">
            <mxRectangle width="150" height="39" as="alternateBounds" />
          </mxGeometry>
        </mxCell>
        <mxCell id="QoZe6DG2z-Dy7hGhGaiL-70" value="" style="shape=tableRow;horizontal=0;startSize=0;swimlaneHead=0;swimlaneBody=0;fillColor=none;collapsible=0;dropTarget=0;points=[[0,0.5],[1,0.5]];portConstraint=eastwest;top=0;left=0;right=0;bottom=0;fontSize=16;" vertex="1" parent="QoZe6DG2z-Dy7hGhGaiL-45">
          <mxGeometry y="306" width="180" height="39" as="geometry" />
        </mxCell>
        <mxCell id="QoZe6DG2z-Dy7hGhGaiL-71" value="" style="shape=partialRectangle;connectable=0;fillColor=none;top=0;left=0;bottom=0;right=0;editable=1;overflow=hidden;whiteSpace=wrap;html=1;fontSize=16;" vertex="1" parent="QoZe6DG2z-Dy7hGhGaiL-70">
          <mxGeometry width="30" height="39" as="geometry">
            <mxRectangle width="30" height="39" as="alternateBounds" />
          </mxGeometry>
        </mxCell>
        <mxCell id="QoZe6DG2z-Dy7hGhGaiL-72" value="cost&amp;nbsp;" style="shape=partialRectangle;connectable=0;fillColor=none;top=0;left=0;bottom=0;right=0;align=left;spacingLeft=6;overflow=hidden;whiteSpace=wrap;html=1;fontSize=16;" vertex="1" parent="QoZe6DG2z-Dy7hGhGaiL-70">
          <mxGeometry x="30" width="150" height="39" as="geometry">
            <mxRectangle width="150" height="39" as="alternateBounds" />
          </mxGeometry>
        </mxCell>
        <mxCell id="QoZe6DG2z-Dy7hGhGaiL-73" value="" style="shape=tableRow;horizontal=0;startSize=0;swimlaneHead=0;swimlaneBody=0;fillColor=none;collapsible=0;dropTarget=0;points=[[0,0.5],[1,0.5]];portConstraint=eastwest;top=0;left=0;right=0;bottom=0;fontSize=16;" vertex="1" parent="QoZe6DG2z-Dy7hGhGaiL-45">
          <mxGeometry y="345" width="180" height="39" as="geometry" />
        </mxCell>
        <mxCell id="QoZe6DG2z-Dy7hGhGaiL-74" value="" style="shape=partialRectangle;connectable=0;fillColor=none;top=0;left=0;bottom=0;right=0;editable=1;overflow=hidden;whiteSpace=wrap;html=1;fontSize=16;" vertex="1" parent="QoZe6DG2z-Dy7hGhGaiL-73">
          <mxGeometry width="30" height="39" as="geometry">
            <mxRectangle width="30" height="39" as="alternateBounds" />
          </mxGeometry>
        </mxCell>
        <mxCell id="QoZe6DG2z-Dy7hGhGaiL-75" value="product_libe&amp;nbsp;" style="shape=partialRectangle;connectable=0;fillColor=none;top=0;left=0;bottom=0;right=0;align=left;spacingLeft=6;overflow=hidden;whiteSpace=wrap;html=1;fontSize=16;" vertex="1" parent="QoZe6DG2z-Dy7hGhGaiL-73">
          <mxGeometry x="30" width="150" height="39" as="geometry">
            <mxRectangle width="150" height="39" as="alternateBounds" />
          </mxGeometry>
        </mxCell>
        <mxCell id="QoZe6DG2z-Dy7hGhGaiL-76" value="" style="shape=tableRow;horizontal=0;startSize=0;swimlaneHead=0;swimlaneBody=0;fillColor=none;collapsible=0;dropTarget=0;points=[[0,0.5],[1,0.5]];portConstraint=eastwest;top=0;left=0;right=0;bottom=0;fontSize=16;" vertex="1" parent="QoZe6DG2z-Dy7hGhGaiL-45">
          <mxGeometry y="384" width="180" height="39" as="geometry" />
        </mxCell>
        <mxCell id="QoZe6DG2z-Dy7hGhGaiL-77" value="" style="shape=partialRectangle;connectable=0;fillColor=none;top=0;left=0;bottom=0;right=0;editable=1;overflow=hidden;whiteSpace=wrap;html=1;fontSize=16;" vertex="1" parent="QoZe6DG2z-Dy7hGhGaiL-76">
          <mxGeometry width="30" height="39" as="geometry">
            <mxRectangle width="30" height="39" as="alternateBounds" />
          </mxGeometry>
        </mxCell>
        <mxCell id="QoZe6DG2z-Dy7hGhGaiL-78" value="start_date&amp;nbsp;" style="shape=partialRectangle;connectable=0;fillColor=none;top=0;left=0;bottom=0;right=0;align=left;spacingLeft=6;overflow=hidden;whiteSpace=wrap;html=1;fontSize=16;" vertex="1" parent="QoZe6DG2z-Dy7hGhGaiL-76">
          <mxGeometry x="30" width="150" height="39" as="geometry">
            <mxRectangle width="150" height="39" as="alternateBounds" />
          </mxGeometry>
        </mxCell>
        <mxCell id="QoZe6DG2z-Dy7hGhGaiL-79" value="gold.facts_sales" style="shape=table;startSize=30;container=1;collapsible=1;childLayout=tableLayout;fixedRows=1;rowLines=0;fontStyle=1;align=center;resizeLast=1;html=1;rounded=1;fillColor=#dae8fc;strokeColor=#6c8ebf;fontSize=16;" vertex="1" parent="1">
          <mxGeometry x="320" y="120" width="180" height="354" as="geometry" />
        </mxCell>
        <mxCell id="QoZe6DG2z-Dy7hGhGaiL-83" value="" style="shape=tableRow;horizontal=0;startSize=0;swimlaneHead=0;swimlaneBody=0;fillColor=none;collapsible=0;dropTarget=0;points=[[0,0.5],[1,0.5]];portConstraint=eastwest;top=0;left=0;right=0;bottom=0;fontSize=16;" vertex="1" parent="QoZe6DG2z-Dy7hGhGaiL-79">
          <mxGeometry y="30" width="180" height="30" as="geometry" />
        </mxCell>
        <mxCell id="QoZe6DG2z-Dy7hGhGaiL-84" value="" style="shape=partialRectangle;connectable=0;fillColor=none;top=0;left=0;bottom=0;right=0;editable=1;overflow=hidden;whiteSpace=wrap;html=1;fontSize=16;" vertex="1" parent="QoZe6DG2z-Dy7hGhGaiL-83">
          <mxGeometry width="40.00000000000023" height="30" as="geometry">
            <mxRectangle width="40.00000000000023" height="30" as="alternateBounds" />
          </mxGeometry>
        </mxCell>
        <mxCell id="QoZe6DG2z-Dy7hGhGaiL-85" value="order_number&amp;nbsp;" style="shape=partialRectangle;connectable=0;fillColor=none;top=0;left=0;bottom=0;right=0;align=left;spacingLeft=6;overflow=hidden;whiteSpace=wrap;html=1;fontSize=16;" vertex="1" parent="QoZe6DG2z-Dy7hGhGaiL-83">
          <mxGeometry x="40.00000000000023" width="139.99999999999977" height="30" as="geometry">
            <mxRectangle width="139.99999999999977" height="30" as="alternateBounds" />
          </mxGeometry>
        </mxCell>
        <mxCell id="QoZe6DG2z-Dy7hGhGaiL-86" value="" style="shape=tableRow;horizontal=0;startSize=0;swimlaneHead=0;swimlaneBody=0;fillColor=none;collapsible=0;dropTarget=0;points=[[0,0.5],[1,0.5]];portConstraint=eastwest;top=0;left=0;right=0;bottom=0;fontSize=16;" vertex="1" parent="QoZe6DG2z-Dy7hGhGaiL-79">
          <mxGeometry y="60" width="180" height="30" as="geometry" />
        </mxCell>
        <mxCell id="QoZe6DG2z-Dy7hGhGaiL-87" value="FK1" style="shape=partialRectangle;connectable=0;fillColor=none;top=0;left=0;bottom=0;right=0;editable=1;overflow=hidden;whiteSpace=wrap;html=1;fontSize=16;" vertex="1" parent="QoZe6DG2z-Dy7hGhGaiL-86">
          <mxGeometry width="40.00000000000023" height="30" as="geometry">
            <mxRectangle width="40.00000000000023" height="30" as="alternateBounds" />
          </mxGeometry>
        </mxCell>
        <mxCell id="QoZe6DG2z-Dy7hGhGaiL-88" value="product_key&amp;nbsp;" style="shape=partialRectangle;connectable=0;fillColor=none;top=0;left=0;bottom=0;right=0;align=left;spacingLeft=6;overflow=hidden;whiteSpace=wrap;html=1;fontSize=16;" vertex="1" parent="QoZe6DG2z-Dy7hGhGaiL-86">
          <mxGeometry x="40.00000000000023" width="139.99999999999977" height="30" as="geometry">
            <mxRectangle width="139.99999999999977" height="30" as="alternateBounds" />
          </mxGeometry>
        </mxCell>
        <mxCell id="QoZe6DG2z-Dy7hGhGaiL-89" value="" style="shape=tableRow;horizontal=0;startSize=0;swimlaneHead=0;swimlaneBody=0;fillColor=none;collapsible=0;dropTarget=0;points=[[0,0.5],[1,0.5]];portConstraint=eastwest;top=0;left=0;right=0;bottom=0;fontSize=16;" vertex="1" parent="QoZe6DG2z-Dy7hGhGaiL-79">
          <mxGeometry y="90" width="180" height="30" as="geometry" />
        </mxCell>
        <mxCell id="QoZe6DG2z-Dy7hGhGaiL-90" value="FK2" style="shape=partialRectangle;connectable=0;fillColor=none;top=0;left=0;bottom=0;right=0;editable=1;overflow=hidden;whiteSpace=wrap;html=1;fontSize=16;" vertex="1" parent="QoZe6DG2z-Dy7hGhGaiL-89">
          <mxGeometry width="40.00000000000023" height="30" as="geometry">
            <mxRectangle width="40.00000000000023" height="30" as="alternateBounds" />
          </mxGeometry>
        </mxCell>
        <mxCell id="QoZe6DG2z-Dy7hGhGaiL-91" value="customer_key&amp;nbsp;" style="shape=partialRectangle;connectable=0;fillColor=none;top=0;left=0;bottom=0;right=0;align=left;spacingLeft=6;overflow=hidden;whiteSpace=wrap;html=1;fontSize=16;" vertex="1" parent="QoZe6DG2z-Dy7hGhGaiL-89">
          <mxGeometry x="40.00000000000023" width="139.99999999999977" height="30" as="geometry">
            <mxRectangle width="139.99999999999977" height="30" as="alternateBounds" />
          </mxGeometry>
        </mxCell>
        <mxCell id="QoZe6DG2z-Dy7hGhGaiL-92" value="" style="shape=tableRow;horizontal=0;startSize=0;swimlaneHead=0;swimlaneBody=0;fillColor=none;collapsible=0;dropTarget=0;points=[[0,0.5],[1,0.5]];portConstraint=eastwest;top=0;left=0;right=0;bottom=0;fontSize=16;" vertex="1" parent="QoZe6DG2z-Dy7hGhGaiL-79">
          <mxGeometry y="120" width="180" height="39" as="geometry" />
        </mxCell>
        <mxCell id="QoZe6DG2z-Dy7hGhGaiL-93" value="" style="shape=partialRectangle;connectable=0;fillColor=none;top=0;left=0;bottom=0;right=0;editable=1;overflow=hidden;whiteSpace=wrap;html=1;fontSize=16;" vertex="1" parent="QoZe6DG2z-Dy7hGhGaiL-92">
          <mxGeometry width="40.00000000000023" height="39" as="geometry">
            <mxRectangle width="40.00000000000023" height="39" as="alternateBounds" />
          </mxGeometry>
        </mxCell>
        <mxCell id="QoZe6DG2z-Dy7hGhGaiL-94" value="order_date&amp;nbsp;" style="shape=partialRectangle;connectable=0;fillColor=none;top=0;left=0;bottom=0;right=0;align=left;spacingLeft=6;overflow=hidden;whiteSpace=wrap;html=1;fontSize=16;" vertex="1" parent="QoZe6DG2z-Dy7hGhGaiL-92">
          <mxGeometry x="40.00000000000023" width="139.99999999999977" height="39" as="geometry">
            <mxRectangle width="139.99999999999977" height="39" as="alternateBounds" />
          </mxGeometry>
        </mxCell>
        <mxCell id="QoZe6DG2z-Dy7hGhGaiL-95" value="" style="shape=tableRow;horizontal=0;startSize=0;swimlaneHead=0;swimlaneBody=0;fillColor=none;collapsible=0;dropTarget=0;points=[[0,0.5],[1,0.5]];portConstraint=eastwest;top=0;left=0;right=0;bottom=0;fontSize=16;" vertex="1" parent="QoZe6DG2z-Dy7hGhGaiL-79">
          <mxGeometry y="159" width="180" height="39" as="geometry" />
        </mxCell>
        <mxCell id="QoZe6DG2z-Dy7hGhGaiL-96" value="" style="shape=partialRectangle;connectable=0;fillColor=none;top=0;left=0;bottom=0;right=0;editable=1;overflow=hidden;whiteSpace=wrap;html=1;fontSize=16;" vertex="1" parent="QoZe6DG2z-Dy7hGhGaiL-95">
          <mxGeometry width="40.00000000000023" height="39" as="geometry">
            <mxRectangle width="40.00000000000023" height="39" as="alternateBounds" />
          </mxGeometry>
        </mxCell>
        <mxCell id="QoZe6DG2z-Dy7hGhGaiL-97" value="shipping_date&amp;nbsp;" style="shape=partialRectangle;connectable=0;fillColor=none;top=0;left=0;bottom=0;right=0;align=left;spacingLeft=6;overflow=hidden;whiteSpace=wrap;html=1;fontSize=16;" vertex="1" parent="QoZe6DG2z-Dy7hGhGaiL-95">
          <mxGeometry x="40.00000000000023" width="139.99999999999977" height="39" as="geometry">
            <mxRectangle width="139.99999999999977" height="39" as="alternateBounds" />
          </mxGeometry>
        </mxCell>
        <mxCell id="QoZe6DG2z-Dy7hGhGaiL-98" value="" style="shape=tableRow;horizontal=0;startSize=0;swimlaneHead=0;swimlaneBody=0;fillColor=none;collapsible=0;dropTarget=0;points=[[0,0.5],[1,0.5]];portConstraint=eastwest;top=0;left=0;right=0;bottom=0;fontSize=16;" vertex="1" parent="QoZe6DG2z-Dy7hGhGaiL-79">
          <mxGeometry y="198" width="180" height="39" as="geometry" />
        </mxCell>
        <mxCell id="QoZe6DG2z-Dy7hGhGaiL-99" value="" style="shape=partialRectangle;connectable=0;fillColor=none;top=0;left=0;bottom=0;right=0;editable=1;overflow=hidden;whiteSpace=wrap;html=1;fontSize=16;" vertex="1" parent="QoZe6DG2z-Dy7hGhGaiL-98">
          <mxGeometry width="40.00000000000023" height="39" as="geometry">
            <mxRectangle width="40.00000000000023" height="39" as="alternateBounds" />
          </mxGeometry>
        </mxCell>
        <mxCell id="QoZe6DG2z-Dy7hGhGaiL-100" value="due_date" style="shape=partialRectangle;connectable=0;fillColor=none;top=0;left=0;bottom=0;right=0;align=left;spacingLeft=6;overflow=hidden;whiteSpace=wrap;html=1;fontSize=16;" vertex="1" parent="QoZe6DG2z-Dy7hGhGaiL-98">
          <mxGeometry x="40.00000000000023" width="139.99999999999977" height="39" as="geometry">
            <mxRectangle width="139.99999999999977" height="39" as="alternateBounds" />
          </mxGeometry>
        </mxCell>
        <mxCell id="QoZe6DG2z-Dy7hGhGaiL-101" value="" style="shape=tableRow;horizontal=0;startSize=0;swimlaneHead=0;swimlaneBody=0;fillColor=none;collapsible=0;dropTarget=0;points=[[0,0.5],[1,0.5]];portConstraint=eastwest;top=0;left=0;right=0;bottom=0;fontSize=16;" vertex="1" parent="QoZe6DG2z-Dy7hGhGaiL-79">
          <mxGeometry y="237" width="180" height="39" as="geometry" />
        </mxCell>
        <mxCell id="QoZe6DG2z-Dy7hGhGaiL-102" value="" style="shape=partialRectangle;connectable=0;fillColor=none;top=0;left=0;bottom=0;right=0;editable=1;overflow=hidden;whiteSpace=wrap;html=1;fontSize=16;" vertex="1" parent="QoZe6DG2z-Dy7hGhGaiL-101">
          <mxGeometry width="40.00000000000023" height="39" as="geometry">
            <mxRectangle width="40.00000000000023" height="39" as="alternateBounds" />
          </mxGeometry>
        </mxCell>
        <mxCell id="QoZe6DG2z-Dy7hGhGaiL-103" value="sales_amount&amp;nbsp;" style="shape=partialRectangle;connectable=0;fillColor=none;top=0;left=0;bottom=0;right=0;align=left;spacingLeft=6;overflow=hidden;whiteSpace=wrap;html=1;fontSize=16;" vertex="1" parent="QoZe6DG2z-Dy7hGhGaiL-101">
          <mxGeometry x="40.00000000000023" width="139.99999999999977" height="39" as="geometry">
            <mxRectangle width="139.99999999999977" height="39" as="alternateBounds" />
          </mxGeometry>
        </mxCell>
        <mxCell id="QoZe6DG2z-Dy7hGhGaiL-104" value="" style="shape=tableRow;horizontal=0;startSize=0;swimlaneHead=0;swimlaneBody=0;fillColor=none;collapsible=0;dropTarget=0;points=[[0,0.5],[1,0.5]];portConstraint=eastwest;top=0;left=0;right=0;bottom=0;fontSize=16;" vertex="1" parent="QoZe6DG2z-Dy7hGhGaiL-79">
          <mxGeometry y="276" width="180" height="39" as="geometry" />
        </mxCell>
        <mxCell id="QoZe6DG2z-Dy7hGhGaiL-105" value="" style="shape=partialRectangle;connectable=0;fillColor=none;top=0;left=0;bottom=0;right=0;editable=1;overflow=hidden;whiteSpace=wrap;html=1;fontSize=16;" vertex="1" parent="QoZe6DG2z-Dy7hGhGaiL-104">
          <mxGeometry width="40.00000000000023" height="39" as="geometry">
            <mxRectangle width="40.00000000000023" height="39" as="alternateBounds" />
          </mxGeometry>
        </mxCell>
        <mxCell id="QoZe6DG2z-Dy7hGhGaiL-106" value="quantity&amp;nbsp;" style="shape=partialRectangle;connectable=0;fillColor=none;top=0;left=0;bottom=0;right=0;align=left;spacingLeft=6;overflow=hidden;whiteSpace=wrap;html=1;fontSize=16;" vertex="1" parent="QoZe6DG2z-Dy7hGhGaiL-104">
          <mxGeometry x="40.00000000000023" width="139.99999999999977" height="39" as="geometry">
            <mxRectangle width="139.99999999999977" height="39" as="alternateBounds" />
          </mxGeometry>
        </mxCell>
        <mxCell id="QoZe6DG2z-Dy7hGhGaiL-107" value="" style="shape=tableRow;horizontal=0;startSize=0;swimlaneHead=0;swimlaneBody=0;fillColor=none;collapsible=0;dropTarget=0;points=[[0,0.5],[1,0.5]];portConstraint=eastwest;top=0;left=0;right=0;bottom=0;fontSize=16;" vertex="1" parent="QoZe6DG2z-Dy7hGhGaiL-79">
          <mxGeometry y="315" width="180" height="39" as="geometry" />
        </mxCell>
        <mxCell id="QoZe6DG2z-Dy7hGhGaiL-108" value="" style="shape=partialRectangle;connectable=0;fillColor=none;top=0;left=0;bottom=0;right=0;editable=1;overflow=hidden;whiteSpace=wrap;html=1;fontSize=16;" vertex="1" parent="QoZe6DG2z-Dy7hGhGaiL-107">
          <mxGeometry width="40.00000000000023" height="39" as="geometry">
            <mxRectangle width="40.00000000000023" height="39" as="alternateBounds" />
          </mxGeometry>
        </mxCell>
        <mxCell id="QoZe6DG2z-Dy7hGhGaiL-109" value="price" style="shape=partialRectangle;connectable=0;fillColor=none;top=0;left=0;bottom=0;right=0;align=left;spacingLeft=6;overflow=hidden;whiteSpace=wrap;html=1;fontSize=16;" vertex="1" parent="QoZe6DG2z-Dy7hGhGaiL-107">
          <mxGeometry x="40.00000000000023" width="139.99999999999977" height="39" as="geometry">
            <mxRectangle width="139.99999999999977" height="39" as="alternateBounds" />
          </mxGeometry>
        </mxCell>
        <mxCell id="QoZe6DG2z-Dy7hGhGaiL-113" value="" style="edgeStyle=entityRelationEdgeStyle;fontSize=12;html=1;endArrow=ERzeroToMany;startArrow=ERmandOne;rounded=0;exitX=1;exitY=0.5;exitDx=0;exitDy=0;entryX=0;entryY=0.5;entryDx=0;entryDy=0;" edge="1" parent="1" source="QoZe6DG2z-Dy7hGhGaiL-15" target="QoZe6DG2z-Dy7hGhGaiL-89">
          <mxGeometry width="100" height="100" relative="1" as="geometry">
            <mxPoint x="210" y="290" as="sourcePoint" />
            <mxPoint x="310" y="190" as="targetPoint" />
            <Array as="points">
              <mxPoint x="230" y="270" />
              <mxPoint x="210" y="220" />
            </Array>
          </mxGeometry>
        </mxCell>
        <mxCell id="QoZe6DG2z-Dy7hGhGaiL-114" value="" style="edgeStyle=entityRelationEdgeStyle;fontSize=12;html=1;endArrow=ERzeroToMany;startArrow=ERmandOne;rounded=0;entryX=1;entryY=0.5;entryDx=0;entryDy=0;exitX=0;exitY=0.5;exitDx=0;exitDy=0;" edge="1" parent="1" source="QoZe6DG2z-Dy7hGhGaiL-46" target="QoZe6DG2z-Dy7hGhGaiL-86">
          <mxGeometry width="100" height="100" relative="1" as="geometry">
            <mxPoint x="550" y="350" as="sourcePoint" />
            <mxPoint x="620" y="247" as="targetPoint" />
          </mxGeometry>
        </mxCell>
        <mxCell id="QoZe6DG2z-Dy7hGhGaiL-115" value="Sales Data Mart&amp;nbsp;" style="text;html=1;align=center;verticalAlign=middle;whiteSpace=wrap;rounded=0;fontStyle=1;fontSize=31;" vertex="1" parent="1">
          <mxGeometry x="-10" y="10" width="320" height="30" as="geometry" />
        </mxCell>
        <mxCell id="QoZe6DG2z-Dy7hGhGaiL-116" value="&lt;span style=&quot;font-size: 16px;&quot;&gt;(Star Schema)&lt;/span&gt;" style="text;html=1;align=center;verticalAlign=middle;whiteSpace=wrap;rounded=0;" vertex="1" parent="1">
          <mxGeometry x="205" y="20" width="220" height="30" as="geometry" />
        </mxCell>
        <mxCell id="QoZe6DG2z-Dy7hGhGaiL-117" value="&lt;h1 style=&quot;margin-top: 0px;&quot;&gt;&lt;span style=&quot;background-color: transparent; color: light-dark(rgb(0, 0, 0), rgb(255, 255, 255));&quot;&gt;&lt;u&gt;Sales Calculation&lt;/u&gt;&lt;/span&gt;&lt;/h1&gt;&lt;div&gt;&lt;span style=&quot;background-color: transparent; color: light-dark(rgb(0, 0, 0), rgb(255, 255, 255));&quot;&gt;&lt;font style=&quot;font-size: 15px;&quot;&gt;&amp;nbsp; &amp;nbsp; &amp;nbsp;sales = quantity * price&amp;nbsp;&lt;/font&gt;&lt;/span&gt;&lt;/div&gt;" style="text;html=1;whiteSpace=wrap;overflow=hidden;rounded=0;" vertex="1" parent="1">
          <mxGeometry x="410" y="500" width="240" height="120" as="geometry" />
        </mxCell>
        <mxCell id="QoZe6DG2z-Dy7hGhGaiL-118" value="" style="endArrow=none;dashed=1;html=1;dashPattern=1 3;strokeWidth=2;rounded=0;" edge="1" parent="1">
          <mxGeometry width="50" height="50" relative="1" as="geometry">
            <mxPoint x="448.2791549295775" y="494" as="sourcePoint" />
            <mxPoint x="431.7157746478874" y="395.9999999999999" as="targetPoint" />
          </mxGeometry>
        </mxCell>
      </root>
    </mxGraphModel>
  </diagram>
</mxfile>
